<?xml version="1.0" encoding="UTF-8" standalone="no"?>
<!-- Generator: Adobe Illustrator 16.0.4, SVG Export Plug-In . SVG Version: 6.00 Build 0)  -->

<svg
   xmlns:dc="http://purl.org/dc/elements/1.1/"
   xmlns:cc="http://creativecommons.org/ns#"
   xmlns:rdf="http://www.w3.org/1999/02/22-rdf-syntax-ns#"
   xmlns:svg="http://www.w3.org/2000/svg"
   xmlns="http://www.w3.org/2000/svg"
   xmlns:sodipodi="http://sodipodi.sourceforge.net/DTD/sodipodi-0.dtd"
   xmlns:inkscape="http://www.inkscape.org/namespaces/inkscape"
   version="1.1"
   id="Layer_1"
   x="0px"
   y="0px"
   width="164.349"
   height="103.93099"
   viewBox="0 0 164.349 103.93099"
   enable-background="new 0 0 612 792"
   xml:space="preserve"
   inkscape:version="0.91 r13725"
   sodipodi:docname="stsci_pri_combo_mark_white.svg"><metadata
     id="metadata4530"><rdf:RDF><cc:Work
         rdf:about=""><dc:format>image/svg+xml</dc:format><dc:type
           rdf:resource="http://purl.org/dc/dcmitype/StillImage" /><dc:title></dc:title></cc:Work></rdf:RDF></metadata><defs
     id="defs4528" /><sodipodi:namedview
     pagecolor="#ffffff"
     bordercolor="#666666"
     borderopacity="1"
     objecttolerance="10"
     gridtolerance="10"
     guidetolerance="10"
     inkscape:pageopacity="0"
     inkscape:pageshadow="2"
     inkscape:window-width="737"
     inkscape:window-height="480"
     id="namedview4526"
     showgrid="false"
     fit-margin-top="0"
     fit-margin-left="0"
     fit-margin-right="0"
     fit-margin-bottom="0"
     inkscape:zoom="0.86994949"
     inkscape:cx="5.1325498"
     inkscape:cy="-85.783042"
     inkscape:window-x="583"
     inkscape:window-y="135"
     inkscape:window-maximized="0"
     inkscape:current-layer="Layer_1" /><circle
     cx="83.945992"
     cy="36"
     r="36"
     id="circle4448"
     style="fill:#ffffff" /><path
     d="m 83.945,69.997994 c -18.746,0 -33.997,-15.252 -33.997,-33.998 0,-18.748 15.251,-34.0000001 33.997,-34.0000001 18.748,0 34,15.2520001 34,34.0000001 0,18.746 -15.252,33.998 -34,33.998 z m 0,-66.9980001 c -18.195,0 -32.997,14.8040001 -32.997,33.0000001 0,18.195 14.802,32.998 32.997,32.998 18.196,0 33,-14.803 33,-32.998 0,-18.196 -14.804,-33.0000001 -33,-33.0000001 z"
     id="path4450"
     inkscape:connector-curvature="0"
     style="fill:#231f20" /><path
     d="m 99.984,22.944994 c -0.268,-8.625 -7.35,-15.5620001 -16.039,-15.5620001 -8.688,0 -15.77,6.9380001 -16.038,15.5620001 l -1.553,0 0,35.837 35.185,0 0,-35.837 -1.555,0 z M 83.945,8.3829939 c 8.307,0 15.064,6.7580001 15.064,15.0620001 0,5.025 -2.482,9.471 -6.274,12.209 l -1.255,-12.963 -0.004,0 c -0.38,-3.82 -3.612,-6.816 -7.531,-6.816 -3.92,0 -7.152,2.996 -7.532,6.816 l -0.003,0 -1.254,12.963 c -3.793,-2.738 -6.274,-7.184 -6.274,-12.209 -0.001,-8.304 6.756,-15.0620001 15.063,-15.0620001 z m 0,45.6240001 -1.016,-4.613 c 0.337,-0.021 0.675,-0.035 1.016,-0.035 0.341,0 0.679,0.014 1.016,0.035 l -1.016,4.613 z m 2.019,-4.521 c 5.248,0.627 9.888,3.667 12.557,8.296 l -14.383,0 1.826,-8.296 z m -2.213,8.297 -14.382,0 c 2.669,-4.629 7.308,-7.669 12.556,-8.296 l 1.826,8.296 z m 0.194,-9.424 c -0.414,0 -0.825,0.014 -1.233,0.043 l -0.307,-1.393 c 0.482,0.08 0.985,0.127 1.514,0.127 0.009,0 0.019,0 0.028,0 0.537,-0.002 1.049,-0.051 1.539,-0.135 l -0.308,1.4 c -0.408,-0.028 -0.819,-0.042 -1.233,-0.042 z m -0.002,-2.222 c -0.008,0 -0.016,0 -0.024,0 -0.625,0 -1.2,-0.09 -1.753,-0.213 l -1.484,-6.75 c 1.055,0.219 2.146,0.336 3.264,0.336 1.118,0 2.209,-0.117 3.264,-0.336 l -1.482,6.74 c -0.562,0.129 -1.148,0.221 -1.785,0.223 z m -6.951,-19.076 0.91,4.135 c -0.555,0.51 -1.062,1.068 -1.474,1.691 l 0.564,-5.826 z m 1.343,1.451 c 0.45,0.498 0.963,0.938 1.53,1.303 -0.384,0.199 -0.747,0.426 -1.096,0.676 l -0.434,-1.979 z m 2.615,1.885 c 0.919,0.398 1.932,0.621 2.995,0.621 1.064,0 2.076,-0.223 2.995,-0.621 0.702,0.291 1.354,0.689 1.944,1.166 l -1.436,6.518 c -1.126,0.271 -2.296,0.43 -3.504,0.43 -1.208,0 -2.378,-0.158 -3.504,-0.43 l -1.438,-6.529 c 0.589,-0.47 1.24,-0.862 1.948,-1.155 z m 10.512,2.486 c -0.411,-0.623 -0.919,-1.18 -1.475,-1.689 l 0.91,-4.133 0.565,5.822 z m -2.342,-2.395 c -0.349,-0.25 -0.712,-0.475 -1.095,-0.676 0.566,-0.363 1.08,-0.803 1.53,-1.303 l -0.435,1.979 z m 0.614,1.864 c 1.043,1.113 1.773,2.49 2.03,3.945 -1.007,0.615 -2.083,1.123 -3.227,1.49 l 1.197,-5.435 z m 0.78,-8.907 c 0,3.623 -2.946,6.572 -6.569,6.572 -3.623,0 -6.57,-2.949 -6.57,-6.572 0,-3.623 2.947,-6.57 6.57,-6.57 3.623,0 6.569,2.947 6.569,6.57 z m -12.362,8.891 1.2,5.451 c -1.144,-0.367 -2.22,-0.875 -3.226,-1.49 0.26,-1.48 0.983,-2.855 2.026,-3.961 z m 1.443,6.559 1.474,6.695 c -1.978,-0.771 -3.372,-2.244 -4.062,-3.584 l -3.562,-6.432 c 1.76,1.526 3.849,2.672 6.15,3.321 z m 8.699,0 c 2.303,-0.648 4.393,-1.795 6.153,-3.322 l -3.57,6.445 c -0.683,1.322 -2.073,2.787 -4.054,3.562 l 1.471,-6.685 z m -20.94,-14.95 0.553,0 c 0.083,2.684 0.82,5.203 2.069,7.402 l -0.013,0.008 6.162,11.121 c 0.847,1.645 2.63,3.494 5.199,4.277 l 0.386,1.75 c -5.709,0.713 -10.725,4.125 -13.486,9.279 l -0.87,0 0,-33.837 z m 33.185,33.838 -0.872,0 c -2.761,-5.154 -7.778,-8.566 -13.487,-9.279 l 0.389,-1.76 c 2.574,-0.789 4.354,-2.629 5.191,-4.254 l 6.168,-11.135 -0.013,-0.008 c 1.249,-2.199 1.986,-4.719 2.069,-7.402 l 0.555,0 0,33.838 z"
     id="path4452"
     inkscape:connector-curvature="0"
     style="fill:#231f20" /><g
     id="g4454"
     transform="translate(-223.979,-344.22501)"><path
       d="m 233.76,431.539 c -0.707,-0.963 -1.621,-1.572 -2.863,-1.572 -1.191,0 -2.331,0.912 -2.331,2.154 0,3.219 7.579,1.875 7.579,8.286 0,3.828 -2.385,6.539 -6.286,6.539 -2.636,0 -4.56,-1.521 -5.88,-3.726 l 2.408,-2.357 c 0.507,1.471 1.851,2.789 3.447,2.789 1.519,0 2.458,-1.294 2.458,-2.764 0,-1.977 -1.826,-2.533 -3.319,-3.115 -2.459,-1.014 -4.259,-2.256 -4.259,-5.221 0,-3.168 2.356,-5.727 5.575,-5.727 1.699,0 4.055,0.836 5.219,2.127 l -1.748,2.587 z"
       id="path4456"
       inkscape:connector-curvature="0"
       style="fill:#ffffff" /><path
       d="m 244.4,446.439 -3.725,0 0,-15.863 -3.854,0 0,-3.244 11.432,0 0,3.244 -3.853,0 0,15.863 z"
       id="path4458"
       inkscape:connector-curvature="0"
       style="fill:#ffffff" /><polygon
       points="269.377,446.439 269.377,443.195 270.917,443.195 270.917,430.576 269.377,430.576 269.377,427.332 276.182,427.332 276.182,430.576 274.642,430.576 274.642,443.195 276.182,443.195 276.182,446.439 "
       id="polygon4460"
       style="fill:#ffffff" /><path
       d="m 265.074,436.26 c 1.09,0 1.851,0.455 2.611,1.215 l 0,-3.42 c -0.861,-0.533 -1.901,-0.786 -2.889,-0.786 -2.438,0 -4.43,1.255 -5.531,3.146 -2.227,-2.015 -5.943,-2.038 -5.943,-4.294 0,-1.242 1.141,-2.154 2.331,-2.154 1.243,0 2.154,0.609 2.863,1.572 l 1.749,-2.586 c -1.165,-1.291 -3.521,-2.127 -5.22,-2.127 -3.22,0 -5.575,2.559 -5.575,5.727 0,2.965 1.798,4.207 4.259,5.221 1.492,0.582 3.319,1.139 3.319,3.115 0,1.47 -0.94,2.764 -2.459,2.764 -1.597,0 -2.94,-1.318 -3.446,-2.789 l -2.408,2.357 c 1.318,2.205 3.244,3.726 5.879,3.726 2.379,0 4.189,-1.012 5.243,-2.665 1.121,1.362 2.785,2.24 4.761,2.24 1.088,0 2.103,-0.229 3.066,-0.76 l 0,-3.422 c -0.635,0.711 -1.521,1.191 -2.484,1.191 -2.029,0 -3.269,-1.621 -3.269,-3.573 0.002,-1.825 1.142,-3.698 3.143,-3.698 z"
       id="path4462"
       inkscape:connector-curvature="0"
       style="fill:#ffffff" /></g><path
     d="m 70.188,83.637994 c -0.335,-0.455 -0.768,-0.744 -1.355,-0.744 -0.564,0 -1.104,0.433 -1.104,1.02 0,1.523 3.586,0.889 3.586,3.922 0,1.812 -1.127,3.095 -2.975,3.095 -1.247,0 -2.159,-0.72 -2.782,-1.763 l 1.14,-1.115 c 0.239,0.695 0.875,1.318 1.631,1.318 0.72,0 1.163,-0.611 1.163,-1.307 0,-0.936 -0.863,-1.199 -1.571,-1.475 -1.164,-0.48 -2.015,-1.068 -2.015,-2.471 0,-1.5 1.115,-2.711 2.639,-2.711 0.804,0 1.919,0.396 2.471,1.008 l -0.828,1.223 z"
     id="path4464"
     inkscape:connector-curvature="0"
     style="fill:#ffffff" /><path
     d="m 74.004,90.690994 -1.763,0 0,-9.043 2.398,0 c 1.895,0 3.13,0.755 3.13,2.807 0,1.918 -1.043,2.854 -2.89,2.854 l -0.876,0 0,3.382 z m 0,-4.846 0.36,0 c 1.043,0 1.607,-0.229 1.607,-1.403 0,-1.163 -0.671,-1.331 -1.655,-1.331 l -0.312,0 0,2.734 z"
     id="path4466"
     inkscape:connector-curvature="0"
     style="fill:#ffffff" /><path
     d="m 79.467,88.783994 -0.744,1.907 -1.859,0 3.526,-9.283 1.367,0 3.431,9.283 -1.884,0 -0.695,-1.907 -3.142,0 z m 1.523,-4.726 -0.023,0 -0.996,3.286 2.147,0 -1.128,-3.286 z"
     id="path4468"
     inkscape:connector-curvature="0"
     style="fill:#ffffff" /><path
     d="m 91.537,84.045994 c -0.492,-0.6 -1.235,-0.96 -1.991,-0.96 -1.691,0 -2.663,1.56 -2.663,3.118 0,1.523 1.008,3.047 2.651,3.047 0.755,0 1.511,-0.396 2.003,-0.959 l 0,2.098 c -0.66,0.312 -1.319,0.54 -2.051,0.54 -2.543,0 -4.426,-2.194 -4.426,-4.689 0,-2.566 1.811,-4.833 4.461,-4.833 0.708,0 1.403,0.191 2.016,0.527 l 0,2.111 z"
     id="path4470"
     inkscape:connector-curvature="0"
     style="fill:#ffffff" /><path
     d="m 94.466,83.182994 0,1.99 2.807,0 0,1.535 -2.807,0 0,2.447 2.914,0 0,1.535 -4.677,0 0,-9.043 4.677,0 0,1.535 -2.914,0 z"
     id="path4472"
     inkscape:connector-curvature="0"
     style="fill:#ffffff" /><path
     d="m 104.965,90.690994 -1.763,0 0,-7.508 -1.823,0 0,-1.535 5.409,0 0,1.535 -1.823,0 0,7.508 z"
     id="path4474"
     inkscape:connector-curvature="0"
     style="fill:#ffffff" /><path
     d="m 109.203,83.182994 0,1.99 2.806,0 0,1.535 -2.806,0 0,2.447 2.914,0 0,1.535 -4.678,0 0,-9.043 4.678,0 0,1.535 -2.914,0 z"
     id="path4476"
     inkscape:connector-curvature="0"
     style="fill:#ffffff" /><path
     d="m 115.058,89.155994 2.494,0 0,1.535 -4.257,0 0,-9.043 1.763,0 0,7.508 z"
     id="path4478"
     inkscape:connector-curvature="0"
     style="fill:#ffffff" /><path
     d="m 119.882,83.182994 0,1.99 2.807,0 0,1.535 -2.807,0 0,2.447 2.914,0 0,1.535 -4.678,0 0,-9.043 4.678,0 0,1.535 -2.914,0 z"
     id="path4480"
     inkscape:connector-curvature="0"
     style="fill:#ffffff" /><path
     d="m 128.232,83.637994 c -0.335,-0.455 -0.768,-0.744 -1.354,-0.744 -0.563,0 -1.104,0.433 -1.104,1.02 0,1.523 3.586,0.889 3.586,3.922 0,1.812 -1.128,3.095 -2.975,3.095 -1.247,0 -2.159,-0.72 -2.782,-1.763 l 1.14,-1.115 c 0.239,0.695 0.875,1.318 1.631,1.318 0.72,0 1.163,-0.611 1.163,-1.307 0,-0.936 -0.863,-1.199 -1.57,-1.475 -1.164,-0.48 -2.016,-1.068 -2.016,-2.471 0,-1.5 1.115,-2.711 2.639,-2.711 0.804,0 1.919,0.396 2.471,1.008 l -0.829,1.223 z"
     id="path4482"
     inkscape:connector-curvature="0"
     style="fill:#ffffff" /><path
     d="m 136.332,84.045994 c -0.492,-0.6 -1.235,-0.96 -1.991,-0.96 -1.69,0 -2.662,1.56 -2.662,3.118 0,1.523 1.007,3.047 2.65,3.047 0.756,0 1.511,-0.396 2.003,-0.959 l 0,2.098 c -0.66,0.312 -1.319,0.54 -2.051,0.54 -2.543,0 -4.426,-2.194 -4.426,-4.689 0,-2.566 1.811,-4.833 4.462,-4.833 0.707,0 1.403,0.191 2.015,0.527 l 0,2.111 z"
     id="path4484"
     inkscape:connector-curvature="0"
     style="fill:#ffffff" /><path
     d="m 137.067,86.156994 c 0,-2.53 1.835,-4.749 4.474,-4.749 2.639,0 4.474,2.219 4.474,4.749 0,2.591 -1.835,4.773 -4.474,4.773 -2.639,0 -4.474,-2.182 -4.474,-4.773 z m 1.823,-0.071 c 0,1.367 1.151,3.105 2.65,3.105 1.499,0 2.65,-1.738 2.65,-3.105 0,-1.464 -1.104,-2.939 -2.65,-2.939 -1.546,0 -2.65,1.475 -2.65,2.939 z"
     id="path4486"
     inkscape:connector-curvature="0"
     style="fill:#ffffff" /><path
     d="m 148.646,90.690994 -1.764,0 0,-9.043 2.399,0 c 1.895,0 3.13,0.755 3.13,2.807 0,1.918 -1.043,2.854 -2.891,2.854 l -0.875,0 0,3.382 z m 0,-4.846 0.359,0 c 1.044,0 1.607,-0.229 1.607,-1.403 0,-1.163 -0.672,-1.331 -1.655,-1.331 l -0.312,0 0,2.734 z"
     id="path4488"
     inkscape:connector-curvature="0"
     style="fill:#ffffff" /><path
     d="m 154.982,83.182994 0,1.99 2.807,0 0,1.535 -2.807,0 0,2.447 2.914,0 0,1.535 -4.678,0 0,-9.043 4.678,0 0,1.535 -2.914,0 z"
     id="path4490"
     inkscape:connector-curvature="0"
     style="fill:#ffffff" /><path
     d="m 70.188,96.637994 c -0.335,-0.455 -0.768,-0.744 -1.355,-0.744 -0.564,0 -1.104,0.433 -1.104,1.02 0,1.523 3.586,0.889 3.586,3.921996 0,1.812 -1.127,3.095 -2.975,3.095 -1.247,0 -2.159,-0.72 -2.782,-1.763 l 1.14,-1.115 c 0.239,0.695 0.875,1.318 1.631,1.318 0.72,0 1.163,-0.611 1.163,-1.307 0,-0.936 -0.863,-1.198996 -1.571,-1.474996 -1.164,-0.48 -2.015,-1.068 -2.015,-2.471 0,-1.5 1.115,-2.711 2.639,-2.711 0.804,0 1.919,0.396 2.471,1.008 l -0.828,1.223 z"
     id="path4492"
     inkscape:connector-curvature="0"
     style="fill:#ffffff" /><path
     d="m 78.287,97.045994 c -0.492,-0.6 -1.235,-0.96 -1.991,-0.96 -1.691,0 -2.663,1.56 -2.663,3.118 0,1.522996 1.007,3.046996 2.651,3.046996 0.755,0 1.511,-0.396 2.003,-0.959 l 0,2.098 c -0.66,0.312 -1.319,0.54 -2.051,0.54 -2.542,0 -4.425,-2.194 -4.425,-4.688996 0,-2.566 1.811,-4.833 4.461,-4.833 0.708,0 1.403,0.191 2.015,0.527 l 0,2.111 z"
     id="path4494"
     inkscape:connector-curvature="0"
     style="fill:#ffffff" /><path
     d="m 81.217,103.69099 -1.763,0 0,-9.042996 1.763,0 0,9.042996 z"
     id="path4496"
     inkscape:connector-curvature="0"
     style="fill:#ffffff" /><path
     d="m 84.265,96.182994 0,1.99 2.806,0 0,1.535 -2.806,0 0,2.446996 2.914,0 0,1.535 -4.678,0 0,-9.042996 4.678,0 0,1.535 -2.914,0 z"
     id="path4498"
     inkscape:connector-curvature="0"
     style="fill:#ffffff" /><path
     d="m 88.358,94.407994 1.271,0 4.762,6.319996 0.024,0 0,-6.079996 1.763,0 0,9.222996 -1.271,0 -4.762,-6.319996 -0.024,0 0,6.140996 -1.763,0 0,-9.283996 z"
     id="path4500"
     inkscape:connector-curvature="0"
     style="fill:#ffffff" /><path
     d="m 103.51,97.045994 c -0.491,-0.6 -1.235,-0.96 -1.991,-0.96 -1.691,0 -2.662,1.56 -2.662,3.118 0,1.522996 1.008,3.046996 2.65,3.046996 0.756,0 1.512,-0.396 2.003,-0.959 l 0,2.098 c -0.659,0.312 -1.319,0.54 -2.051,0.54 -2.543,0 -4.426,-2.194 -4.426,-4.688996 0,-2.566 1.812,-4.833 4.462,-4.833 0.707,0 1.402,0.191 2.015,0.527 l 0,2.111 z"
     id="path4502"
     inkscape:connector-curvature="0"
     style="fill:#ffffff" /><path
     d="m 106.441,96.182994 0,1.99 2.806,0 0,1.535 -2.806,0 0,2.446996 2.914,0 0,1.535 -4.678,0 0,-9.042996 4.678,0 0,1.535 -2.914,0 z"
     id="path4504"
     inkscape:connector-curvature="0"
     style="fill:#ffffff" /><path
     d="m 115.764,103.69099 -1.763,0 0,-9.042996 1.763,0 0,9.042996 z"
     id="path4506"
     inkscape:connector-curvature="0"
     style="fill:#ffffff" /><path
     d="m 117.049,94.407994 1.271,0 4.762,6.319996 0.024,0 0,-6.079996 1.763,0 0,9.222996 -1.271,0 -4.762,-6.319996 -0.023,0 0,6.140996 -1.763,0 0,-9.283996 z"
     id="path4508"
     inkscape:connector-curvature="0"
     style="fill:#ffffff" /><path
     d="m 130.415,96.637994 c -0.336,-0.455 -0.768,-0.744 -1.355,-0.744 -0.563,0 -1.103,0.433 -1.103,1.02 0,1.523 3.586,0.889 3.586,3.921996 0,1.812 -1.128,3.095 -2.975,3.095 -1.248,0 -2.159,-0.72 -2.783,-1.763 l 1.14,-1.115 c 0.24,0.695 0.876,1.318 1.632,1.318 0.719,0 1.163,-0.611 1.163,-1.307 0,-0.936 -0.864,-1.198996 -1.571,-1.474996 -1.164,-0.48 -2.016,-1.068 -2.016,-2.471 0,-1.5 1.116,-2.711 2.639,-2.711 0.804,0 1.92,0.396 2.471,1.008 l -0.828,1.223 z"
     id="path4510"
     inkscape:connector-curvature="0"
     style="fill:#ffffff" /><path
     d="m 135.407,103.69099 -1.763,0 0,-7.507996 -1.823,0 0,-1.535 5.409,0 0,1.535 -1.823,0 0,7.507996 z"
     id="path4512"
     inkscape:connector-curvature="0"
     style="fill:#ffffff" /><path
     d="m 139.644,103.69099 -1.764,0 0,-9.042996 1.764,0 0,9.042996 z"
     id="path4514"
     inkscape:connector-curvature="0"
     style="fill:#ffffff" /><path
     d="m 143.867,103.69099 -1.763,0 0,-7.507996 -1.823,0 0,-1.535 5.409,0 0,1.535 -1.823,0 0,7.507996 z"
     id="path4516"
     inkscape:connector-curvature="0"
     style="fill:#ffffff" /><path
     d="m 146.292,94.647994 1.764,0 0,5.061 c 0,1.114996 0.096,2.686996 1.595,2.686996 1.499,0 1.595,-1.571 1.595,-2.686996 l 0,-5.061 1.764,0 0,5.407996 c 0,2.207 -0.936,3.874 -3.358,3.874 -2.422,0 -3.358,-1.667 -3.358,-3.874 l 0,-5.407996 z"
     id="path4518"
     inkscape:connector-curvature="0"
     style="fill:#ffffff" /><path
     d="m 157.199,103.69099 -1.763,0 0,-7.507996 -1.823,0 0,-1.535 5.409,0 0,1.535 -1.823,0 0,7.507996 z"
     id="path4520"
     inkscape:connector-curvature="0"
     style="fill:#ffffff" /><path
     d="m 161.435,96.182994 0,1.99 2.807,0 0,1.535 -2.807,0 0,2.446996 2.914,0 0,1.535 -4.677,0 0,-9.042996 4.677,0 0,1.535 -2.914,0 z"
     id="path4522"
     inkscape:connector-curvature="0"
     style="fill:#ffffff" /><rect
     x="58.708012"
     y="81.643982"
     width="1"
     height="22.056999"
     id="rect4524"
     style="fill:#ffffff" /></svg>