<?xml version="1.0" encoding="UTF-8" standalone="no"?>
<!-- Generator: Adobe Illustrator 16.0.4, SVG Export Plug-In . SVG Version: 6.00 Build 0)  -->

<svg
   xmlns:dc="http://purl.org/dc/elements/1.1/"
   xmlns:cc="http://creativecommons.org/ns#"
   xmlns:rdf="http://www.w3.org/1999/02/22-rdf-syntax-ns#"
   xmlns:svg="http://www.w3.org/2000/svg"
   xmlns="http://www.w3.org/2000/svg"
   xmlns:sodipodi="http://sodipodi.sourceforge.net/DTD/sodipodi-0.dtd"
   xmlns:inkscape="http://www.inkscape.org/namespaces/inkscape"
   version="1.1"
   id="Layer_1"
   x="0px"
   y="0px"
   width="72"
   height="72"
   viewBox="0 0 72 72"
   enable-background="new 0 0 612 792"
   xml:space="preserve"
   inkscape:version="0.91 r13725"
   sodipodi:docname="stsci_symbol_white.svg"><metadata
     id="metadata5358"><rdf:RDF><cc:Work
         rdf:about=""><dc:format>image/svg+xml</dc:format><dc:type
           rdf:resource="http://purl.org/dc/dcmitype/StillImage" /><dc:title></dc:title></cc:Work></rdf:RDF></metadata><defs
     id="defs5356" /><sodipodi:namedview
     pagecolor="#ffffff"
     bordercolor="#666666"
     borderopacity="1"
     objecttolerance="10"
     gridtolerance="10"
     guidetolerance="10"
     inkscape:pageopacity="0"
     inkscape:pageshadow="2"
     inkscape:window-width="737"
     inkscape:window-height="480"
     id="namedview5354"
     showgrid="false"
     fit-margin-top="0"
     fit-margin-left="0"
     fit-margin-right="0"
     fit-margin-bottom="0"
     inkscape:zoom="0.2979798"
     inkscape:cx="35.075012"
     inkscape:cy="36.084015"
     inkscape:window-x="0"
     inkscape:window-y="0"
     inkscape:window-maximized="0"
     inkscape:current-layer="Layer_1" /><g
     id="g5346"
     transform="translate(-270.92499,-360.08401)"><circle
       cx="306.92499"
       cy="396.08401"
       r="36"
       id="circle5348"
       style="fill:#ffffff" /><path
       d="m 306.924,430.082 c -18.746,0 -33.997,-15.252 -33.997,-33.998 0,-18.748 15.251,-34 33.997,-34 18.748,0 34,15.252 34,34 0,18.746 -15.252,33.998 -34,33.998 z m 0,-66.998 c -18.195,0 -32.997,14.804 -32.997,33 0,18.195 14.802,32.998 32.997,32.998 18.196,0 33,-14.803 33,-32.998 0,-18.196 -14.804,-33 -33,-33 z"
       id="path5350"
       inkscape:connector-curvature="0"
       style="fill:#231f20" /><path
       d="m 322.963,383.03 c -0.268,-8.624 -7.35,-15.562 -16.039,-15.562 -8.688,0 -15.77,6.938 -16.038,15.562 l -1.553,0 0,35.837 35.185,0 0,-35.837 -1.555,0 z m -16.039,-14.563 c 8.307,0 15.064,6.758 15.064,15.063 0,5.024 -2.482,9.47 -6.274,12.208 l -1.255,-12.963 -0.004,0 c -0.38,-3.82 -3.612,-6.815 -7.531,-6.815 -3.92,0 -7.152,2.995 -7.532,6.815 l -0.003,0 -1.254,12.963 c -3.793,-2.738 -6.274,-7.184 -6.274,-12.208 -10e-4,-8.305 6.756,-15.063 15.063,-15.063 z m 0,45.627 -1.016,-4.615 c 0.337,-0.02 0.675,-0.035 1.016,-0.035 0.341,0 0.679,0.016 1.016,0.035 l -1.016,4.615 z m 2.019,-4.522 c 5.248,0.625 9.888,3.668 12.557,8.295 l -14.383,0 1.826,-8.295 z m -2.213,8.295 -14.382,0 c 2.669,-4.627 7.308,-7.67 12.556,-8.295 l 1.826,8.295 z m 0.194,-9.424 c -0.414,0 -0.825,0.016 -1.233,0.043 l -0.307,-1.393 c 0.482,0.082 0.985,0.129 1.514,0.129 0.009,0 0.019,0 0.028,0 0.537,-0.002 1.049,-0.051 1.539,-0.137 l -0.308,1.4 c -0.408,-0.026 -0.819,-0.042 -1.233,-0.042 z m -0.002,-2.22 c -0.008,0 -0.016,0 -0.024,0 -0.625,0 -1.2,-0.09 -1.753,-0.215 l -1.484,-6.748 c 1.055,0.219 2.146,0.334 3.264,0.334 1.118,0 2.209,-0.115 3.264,-0.334 l -1.482,6.74 c -0.562,0.127 -1.148,0.221 -1.785,0.223 z m -6.951,-19.078 0.91,4.136 c -0.555,0.51 -1.062,1.067 -1.474,1.69 l 0.564,-5.826 z m 1.343,1.451 c 0.45,0.499 0.963,0.938 1.53,1.303 -0.384,0.2 -0.747,0.426 -1.096,0.676 l -0.434,-1.979 z m 2.615,1.885 c 0.919,0.398 1.932,0.621 2.995,0.621 1.064,0 2.076,-0.223 2.995,-0.621 0.702,0.292 1.354,0.689 1.944,1.166 l -1.436,6.519 c -1.126,0.27 -2.296,0.428 -3.504,0.428 -1.208,0 -2.378,-0.158 -3.504,-0.428 l -1.438,-6.53 c 0.589,-0.469 1.24,-0.861 1.948,-1.155 z m 10.512,2.487 c -0.411,-0.623 -0.919,-1.18 -1.475,-1.689 l 0.91,-4.134 0.565,5.823 z m -2.342,-2.394 c -0.349,-0.25 -0.712,-0.476 -1.095,-0.676 0.566,-0.364 1.08,-0.804 1.53,-1.303 l -0.435,1.979 z m 0.614,1.863 c 1.043,1.112 1.773,2.489 2.03,3.944 -1.007,0.615 -2.083,1.125 -3.227,1.492 l 1.197,-5.436 z m 0.78,-8.906 c 0,3.623 -2.946,6.571 -6.569,6.571 -3.623,0 -6.57,-2.948 -6.57,-6.571 0,-3.623 2.947,-6.57 6.57,-6.57 3.623,0 6.569,2.947 6.569,6.57 z m -12.362,8.89 1.2,5.452 c -1.144,-0.367 -2.22,-0.876 -3.226,-1.492 0.26,-1.48 0.983,-2.854 2.026,-3.96 z m 1.443,6.559 1.474,6.695 c -1.978,-0.773 -3.372,-2.244 -4.062,-3.586 l -3.562,-6.43 c 1.76,1.527 3.849,2.671 6.15,3.321 z m 8.699,0 c 2.303,-0.65 4.393,-1.797 6.153,-3.323 l -3.57,6.446 c -0.683,1.322 -2.073,2.785 -4.054,3.561 l 1.471,-6.684 z m -20.94,-14.95 0.553,0 c 0.083,2.685 0.82,5.204 2.069,7.403 l -0.013,0.007 6.162,11.121 c 0.847,1.646 2.63,3.496 5.199,4.277 l 0.386,1.752 c -5.709,0.711 -10.725,4.123 -13.486,9.277 l -0.87,0 0,-33.837 z m 33.185,33.837 -0.872,0 c -2.761,-5.154 -7.778,-8.566 -13.487,-9.277 l 0.389,-1.762 c 2.574,-0.787 4.354,-2.629 5.191,-4.254 l 6.168,-11.134 -0.013,-0.007 c 1.249,-2.199 1.986,-4.719 2.069,-7.403 l 0.555,0 0,33.837 z"
       id="path5352"
       inkscape:connector-curvature="0"
       style="fill:#231f20" /></g></svg>